<mxfile host="Electron" agent="Mozilla/5.0 (Windows NT 10.0; Win64; x64) AppleWebKit/537.36 (KHTML, like Gecko) draw.io/24.7.5 Chrome/126.0.6478.183 Electron/31.3.0 Safari/537.36" version="24.7.5">
  <diagram name="PÃ¡gina-1" id="6pR2tzA4P5ZtD1_yJ_Ov">
    <mxGraphModel dx="1707" dy="542" grid="1" gridSize="10" guides="1" tooltips="1" connect="1" arrows="1" fold="1" page="1" pageScale="1" pageWidth="827" pageHeight="1169" math="0" shadow="0">
      <root>
        <mxCell id="0" />
        <mxCell id="1" parent="0" />
        <mxCell id="-SHVfvobNdwr3lZzmmMt-4" value="" style="edgeStyle=orthogonalEdgeStyle;rounded=0;orthogonalLoop=1;jettySize=auto;html=1;endArrow=none;endFill=0;" parent="1" source="-SHVfvobNdwr3lZzmmMt-1" target="-SHVfvobNdwr3lZzmmMt-3" edge="1">
          <mxGeometry relative="1" as="geometry" />
        </mxCell>
        <mxCell id="-SHVfvobNdwr3lZzmmMt-7" value="" style="edgeStyle=orthogonalEdgeStyle;rounded=0;orthogonalLoop=1;jettySize=auto;html=1;endArrow=none;endFill=0;" parent="1" source="-SHVfvobNdwr3lZzmmMt-1" target="-SHVfvobNdwr3lZzmmMt-6" edge="1">
          <mxGeometry relative="1" as="geometry" />
        </mxCell>
        <mxCell id="-SHVfvobNdwr3lZzmmMt-10" value="" style="edgeStyle=orthogonalEdgeStyle;rounded=0;orthogonalLoop=1;jettySize=auto;html=1;endArrow=none;endFill=0;" parent="1" source="-SHVfvobNdwr3lZzmmMt-1" target="-SHVfvobNdwr3lZzmmMt-9" edge="1">
          <mxGeometry relative="1" as="geometry" />
        </mxCell>
        <mxCell id="-SHVfvobNdwr3lZzmmMt-12" value="" style="edgeStyle=orthogonalEdgeStyle;rounded=0;orthogonalLoop=1;jettySize=auto;html=1;endArrow=none;endFill=0;" parent="1" source="-SHVfvobNdwr3lZzmmMt-1" target="-SHVfvobNdwr3lZzmmMt-11" edge="1">
          <mxGeometry relative="1" as="geometry" />
        </mxCell>
        <mxCell id="-SHVfvobNdwr3lZzmmMt-14" value="" style="edgeStyle=orthogonalEdgeStyle;rounded=0;orthogonalLoop=1;jettySize=auto;html=1;endArrow=none;endFill=0;" parent="1" source="-SHVfvobNdwr3lZzmmMt-1" target="-SHVfvobNdwr3lZzmmMt-13" edge="1">
          <mxGeometry relative="1" as="geometry" />
        </mxCell>
        <mxCell id="-SHVfvobNdwr3lZzmmMt-18" value="" style="edgeStyle=orthogonalEdgeStyle;rounded=0;orthogonalLoop=1;jettySize=auto;html=1;endArrow=none;endFill=0;" parent="1" source="-SHVfvobNdwr3lZzmmMt-1" target="-SHVfvobNdwr3lZzmmMt-17" edge="1">
          <mxGeometry relative="1" as="geometry" />
        </mxCell>
        <mxCell id="-SHVfvobNdwr3lZzmmMt-20" value="" style="edgeStyle=orthogonalEdgeStyle;rounded=0;orthogonalLoop=1;jettySize=auto;html=1;endArrow=none;endFill=0;" parent="1" source="-SHVfvobNdwr3lZzmmMt-1" target="-SHVfvobNdwr3lZzmmMt-19" edge="1">
          <mxGeometry relative="1" as="geometry" />
        </mxCell>
        <mxCell id="-SHVfvobNdwr3lZzmmMt-22" value="" style="rounded=0;orthogonalLoop=1;jettySize=auto;html=1;endArrow=none;endFill=0;" parent="1" source="-SHVfvobNdwr3lZzmmMt-1" target="-SHVfvobNdwr3lZzmmMt-21" edge="1">
          <mxGeometry relative="1" as="geometry" />
        </mxCell>
        <mxCell id="-SHVfvobNdwr3lZzmmMt-23" value="(1,1)" style="edgeLabel;html=1;align=center;verticalAlign=middle;resizable=0;points=[];" parent="-SHVfvobNdwr3lZzmmMt-22" vertex="1" connectable="0">
          <mxGeometry x="0.04" y="3" relative="1" as="geometry">
            <mxPoint as="offset" />
          </mxGeometry>
        </mxCell>
        <mxCell id="-SHVfvobNdwr3lZzmmMt-38" value="(1,N)" style="edgeStyle=orthogonalEdgeStyle;rounded=0;orthogonalLoop=1;jettySize=auto;html=1;endArrow=none;endFill=0;" parent="1" source="-SHVfvobNdwr3lZzmmMt-1" target="-SHVfvobNdwr3lZzmmMt-37" edge="1">
          <mxGeometry relative="1" as="geometry" />
        </mxCell>
        <mxCell id="-SHVfvobNdwr3lZzmmMt-1" value="PACIENTE" style="rounded=0;whiteSpace=wrap;html=1;fillColor=#ffcccc;strokeColor=#36393d;" parent="1" vertex="1">
          <mxGeometry x="172" y="225" width="120" height="60" as="geometry" />
        </mxCell>
        <mxCell id="-SHVfvobNdwr3lZzmmMt-3" value="ID_PACIENTE" style="ellipse;whiteSpace=wrap;html=1;rounded=0;fillColor=#cce5ff;strokeColor=#36393d;" parent="1" vertex="1">
          <mxGeometry x="-22" y="140" width="92" height="80" as="geometry" />
        </mxCell>
        <mxCell id="-SHVfvobNdwr3lZzmmMt-6" value="NOMBRE" style="ellipse;whiteSpace=wrap;html=1;rounded=0;fillColor=#cce5ff;strokeColor=#36393d;" parent="1" vertex="1">
          <mxGeometry x="-110" y="287" width="80" height="80" as="geometry" />
        </mxCell>
        <mxCell id="-SHVfvobNdwr3lZzmmMt-9" value="APELLIDO" style="ellipse;whiteSpace=wrap;html=1;rounded=0;fillColor=#cce5ff;strokeColor=#36393d;" parent="1" vertex="1">
          <mxGeometry x="77" y="289" width="80" height="80" as="geometry" />
        </mxCell>
        <mxCell id="-SHVfvobNdwr3lZzmmMt-11" value="DIRECCION" style="ellipse;whiteSpace=wrap;html=1;rounded=0;fillColor=#cce5ff;strokeColor=#36393d;" parent="1" vertex="1">
          <mxGeometry x="77" y="140" width="80" height="80" as="geometry" />
        </mxCell>
        <mxCell id="-SHVfvobNdwr3lZzmmMt-13" value="POBLACION" style="ellipse;whiteSpace=wrap;html=1;rounded=0;fillColor=#cce5ff;strokeColor=#36393d;" parent="1" vertex="1">
          <mxGeometry x="-16" y="287" width="80" height="80" as="geometry" />
        </mxCell>
        <mxCell id="-SHVfvobNdwr3lZzmmMt-15" value="DEPARTAMENTO" style="ellipse;whiteSpace=wrap;html=1;rounded=0;fillColor=#cce5ff;strokeColor=#36393d;" parent="1" vertex="1">
          <mxGeometry x="-197" y="215" width="110" height="80" as="geometry" />
        </mxCell>
        <mxCell id="-SHVfvobNdwr3lZzmmMt-17" value="TELEFONO" style="ellipse;whiteSpace=wrap;html=1;rounded=0;fillColor=#cce5ff;strokeColor=#36393d;" parent="1" vertex="1">
          <mxGeometry x="-110" y="140" width="80" height="80" as="geometry" />
        </mxCell>
        <mxCell id="-SHVfvobNdwr3lZzmmMt-19" value="FECHA_NACIMIENTO" style="ellipse;whiteSpace=wrap;html=1;rounded=0;fillColor=#cce5ff;strokeColor=#36393d;" parent="1" vertex="1">
          <mxGeometry x="167" y="110" width="130" height="80" as="geometry" />
        </mxCell>
        <mxCell id="-SHVfvobNdwr3lZzmmMt-25" value="" style="edgeStyle=orthogonalEdgeStyle;rounded=0;orthogonalLoop=1;jettySize=auto;html=1;endArrow=none;endFill=0;" parent="1" source="-SHVfvobNdwr3lZzmmMt-21" target="-SHVfvobNdwr3lZzmmMt-24" edge="1">
          <mxGeometry relative="1" as="geometry" />
        </mxCell>
        <mxCell id="-SHVfvobNdwr3lZzmmMt-26" value="(N,N)" style="edgeLabel;html=1;align=center;verticalAlign=middle;resizable=0;points=[];" parent="-SHVfvobNdwr3lZzmmMt-25" vertex="1" connectable="0">
          <mxGeometry x="-0.2" y="-1" relative="1" as="geometry">
            <mxPoint as="offset" />
          </mxGeometry>
        </mxCell>
        <mxCell id="-SHVfvobNdwr3lZzmmMt-21" value="CONTROLAR" style="rhombus;whiteSpace=wrap;html=1;rounded=0;fillColor=#cdeb8b;strokeColor=#36393d;" parent="1" vertex="1">
          <mxGeometry x="347" y="230" width="80" height="80" as="geometry" />
        </mxCell>
        <mxCell id="-SHVfvobNdwr3lZzmmMt-28" value="" style="edgeStyle=orthogonalEdgeStyle;rounded=0;orthogonalLoop=1;jettySize=auto;html=1;endArrow=none;endFill=0;" parent="1" source="-SHVfvobNdwr3lZzmmMt-24" target="-SHVfvobNdwr3lZzmmMt-27" edge="1">
          <mxGeometry relative="1" as="geometry" />
        </mxCell>
        <mxCell id="-SHVfvobNdwr3lZzmmMt-32" value="" style="edgeStyle=orthogonalEdgeStyle;rounded=0;orthogonalLoop=1;jettySize=auto;html=1;endArrow=none;endFill=0;" parent="1" source="-SHVfvobNdwr3lZzmmMt-24" target="-SHVfvobNdwr3lZzmmMt-31" edge="1">
          <mxGeometry relative="1" as="geometry" />
        </mxCell>
        <mxCell id="-SHVfvobNdwr3lZzmmMt-36" value="" style="edgeStyle=orthogonalEdgeStyle;rounded=0;orthogonalLoop=1;jettySize=auto;html=1;endArrow=none;endFill=0;" parent="1" source="-SHVfvobNdwr3lZzmmMt-24" target="-SHVfvobNdwr3lZzmmMt-35" edge="1">
          <mxGeometry relative="1" as="geometry" />
        </mxCell>
        <mxCell id="-SHVfvobNdwr3lZzmmMt-40" value="" style="edgeStyle=orthogonalEdgeStyle;rounded=0;orthogonalLoop=1;jettySize=auto;html=1;endArrow=none;endFill=0;" parent="1" source="-SHVfvobNdwr3lZzmmMt-24" target="-SHVfvobNdwr3lZzmmMt-39" edge="1">
          <mxGeometry relative="1" as="geometry" />
        </mxCell>
        <mxCell id="-SHVfvobNdwr3lZzmmMt-54" value="(1,1)" style="edgeLabel;html=1;align=center;verticalAlign=middle;resizable=0;points=[];" parent="-SHVfvobNdwr3lZzmmMt-40" vertex="1" connectable="0">
          <mxGeometry x="0.0116" relative="1" as="geometry">
            <mxPoint as="offset" />
          </mxGeometry>
        </mxCell>
        <mxCell id="-SHVfvobNdwr3lZzmmMt-24" value="MEDICO" style="whiteSpace=wrap;html=1;rounded=0;fillColor=#fff2cc;gradientColor=#ffd966;strokeColor=#d6b656;" parent="1" vertex="1">
          <mxGeometry x="470" y="240" width="120" height="60" as="geometry" />
        </mxCell>
        <mxCell id="-SHVfvobNdwr3lZzmmMt-27" value="ID_MECANICO" style="ellipse;whiteSpace=wrap;html=1;rounded=0;fillColor=#cce5ff;strokeColor=#36393d;" parent="1" vertex="1">
          <mxGeometry x="480" y="130" width="100" height="80" as="geometry" />
        </mxCell>
        <mxCell id="-SHVfvobNdwr3lZzmmMt-29" value="NOMBRE" style="ellipse;whiteSpace=wrap;html=1;rounded=0;fillColor=#cce5ff;strokeColor=#36393d;" parent="1" vertex="1">
          <mxGeometry x="590" y="159" width="80" height="80" as="geometry" />
        </mxCell>
        <mxCell id="-SHVfvobNdwr3lZzmmMt-31" value="APELLIDOS" style="ellipse;whiteSpace=wrap;html=1;rounded=0;fillColor=#cce5ff;strokeColor=#36393d;" parent="1" vertex="1">
          <mxGeometry x="490" y="365" width="80" height="80" as="geometry" />
        </mxCell>
        <mxCell id="-SHVfvobNdwr3lZzmmMt-33" value="TELEFONO" style="ellipse;whiteSpace=wrap;html=1;rounded=0;fillColor=#cce5ff;strokeColor=#36393d;" parent="1" vertex="1">
          <mxGeometry x="590" y="300" width="80" height="80" as="geometry" />
        </mxCell>
        <mxCell id="-SHVfvobNdwr3lZzmmMt-35" value="ESPECIALIDAD" style="ellipse;whiteSpace=wrap;html=1;rounded=0;fillColor=#cce5ff;strokeColor=#36393d;" parent="1" vertex="1">
          <mxGeometry x="659" y="230" width="100" height="80" as="geometry" />
        </mxCell>
        <mxCell id="-SHVfvobNdwr3lZzmmMt-42" value="" style="edgeStyle=orthogonalEdgeStyle;rounded=0;orthogonalLoop=1;jettySize=auto;html=1;endArrow=none;endFill=0;" parent="1" source="-SHVfvobNdwr3lZzmmMt-37" target="-SHVfvobNdwr3lZzmmMt-41" edge="1">
          <mxGeometry relative="1" as="geometry">
            <Array as="points">
              <mxPoint x="232" y="480" />
            </Array>
          </mxGeometry>
        </mxCell>
        <mxCell id="-SHVfvobNdwr3lZzmmMt-52" value="(1:1)" style="edgeLabel;html=1;align=center;verticalAlign=middle;resizable=0;points=[];" parent="-SHVfvobNdwr3lZzmmMt-42" vertex="1" connectable="0">
          <mxGeometry x="-0.0667" relative="1" as="geometry">
            <mxPoint as="offset" />
          </mxGeometry>
        </mxCell>
        <mxCell id="-SHVfvobNdwr3lZzmmMt-37" value="INGRESAR" style="rhombus;whiteSpace=wrap;html=1;rounded=0;fillColor=#cdeb8b;strokeColor=#36393d;" parent="1" vertex="1">
          <mxGeometry x="192" y="337" width="80" height="80" as="geometry" />
        </mxCell>
        <mxCell id="-SHVfvobNdwr3lZzmmMt-51" style="edgeStyle=orthogonalEdgeStyle;rounded=0;orthogonalLoop=1;jettySize=auto;html=1;exitX=0;exitY=1;exitDx=0;exitDy=0;entryX=1;entryY=0;entryDx=0;entryDy=0;endArrow=none;endFill=0;" parent="1" source="-SHVfvobNdwr3lZzmmMt-39" target="-SHVfvobNdwr3lZzmmMt-41" edge="1">
          <mxGeometry relative="1" as="geometry" />
        </mxCell>
        <mxCell id="-SHVfvobNdwr3lZzmmMt-53" value="(1,N)" style="edgeLabel;html=1;align=center;verticalAlign=middle;resizable=0;points=[];" parent="-SHVfvobNdwr3lZzmmMt-51" vertex="1" connectable="0">
          <mxGeometry x="0.036" y="-3" relative="1" as="geometry">
            <mxPoint as="offset" />
          </mxGeometry>
        </mxCell>
        <mxCell id="-SHVfvobNdwr3lZzmmMt-39" value="ATENDER" style="rhombus;whiteSpace=wrap;html=1;rounded=0;fillColor=#cdeb8b;strokeColor=#36393d;" parent="1" vertex="1">
          <mxGeometry x="398" y="380" width="80" height="80" as="geometry" />
        </mxCell>
        <mxCell id="-SHVfvobNdwr3lZzmmMt-41" value="INGRESOS" style="whiteSpace=wrap;html=1;rounded=0;fillColor=#ffcccc;strokeColor=#36393d;" parent="1" vertex="1">
          <mxGeometry x="260" y="473" width="120" height="60" as="geometry" />
        </mxCell>
        <mxCell id="-SHVfvobNdwr3lZzmmMt-43" value="ID_INGRESO" style="ellipse;whiteSpace=wrap;html=1;rounded=0;fillColor=#cce5ff;strokeColor=#36393d;" parent="1" vertex="1">
          <mxGeometry x="130" y="490" width="80" height="80" as="geometry" />
        </mxCell>
        <mxCell id="-SHVfvobNdwr3lZzmmMt-45" value="HABITACION" style="ellipse;whiteSpace=wrap;html=1;rounded=0;fillColor=#cce5ff;strokeColor=#36393d;" parent="1" vertex="1">
          <mxGeometry x="192" y="570" width="80" height="80" as="geometry" />
        </mxCell>
        <mxCell id="-SHVfvobNdwr3lZzmmMt-47" value="CAMA" style="ellipse;whiteSpace=wrap;html=1;rounded=0;fillColor=#cce5ff;strokeColor=#36393d;" parent="1" vertex="1">
          <mxGeometry x="410" y="500" width="80" height="80" as="geometry" />
        </mxCell>
        <mxCell id="-SHVfvobNdwr3lZzmmMt-49" value="FECHA_INGRESO" style="ellipse;whiteSpace=wrap;html=1;rounded=0;fillColor=#cce5ff;strokeColor=#36393d;" parent="1" vertex="1">
          <mxGeometry x="294" y="570" width="120" height="80" as="geometry" />
        </mxCell>
        <mxCell id="_nX4mWLyU_Ge7oBZuAVl-1" value="" style="endArrow=none;html=1;rounded=0;entryX=0.5;entryY=1;entryDx=0;entryDy=0;exitX=0.5;exitY=0;exitDx=0;exitDy=0;" edge="1" parent="1" source="-SHVfvobNdwr3lZzmmMt-33" target="-SHVfvobNdwr3lZzmmMt-29">
          <mxGeometry width="50" height="50" relative="1" as="geometry">
            <mxPoint x="440" y="350" as="sourcePoint" />
            <mxPoint x="490" y="300" as="targetPoint" />
          </mxGeometry>
        </mxCell>
        <mxCell id="_nX4mWLyU_Ge7oBZuAVl-2" value="" style="endArrow=none;html=1;rounded=0;entryX=0.75;entryY=1;entryDx=0;entryDy=0;exitX=0.5;exitY=0;exitDx=0;exitDy=0;" edge="1" parent="1" source="-SHVfvobNdwr3lZzmmMt-49" target="-SHVfvobNdwr3lZzmmMt-41">
          <mxGeometry width="50" height="50" relative="1" as="geometry">
            <mxPoint x="440" y="650" as="sourcePoint" />
            <mxPoint x="490" y="600" as="targetPoint" />
          </mxGeometry>
        </mxCell>
        <mxCell id="_nX4mWLyU_Ge7oBZuAVl-3" value="" style="endArrow=none;html=1;rounded=0;entryX=0.083;entryY=0.967;entryDx=0;entryDy=0;entryPerimeter=0;" edge="1" parent="1" source="-SHVfvobNdwr3lZzmmMt-45" target="-SHVfvobNdwr3lZzmmMt-41">
          <mxGeometry width="50" height="50" relative="1" as="geometry">
            <mxPoint x="440" y="650" as="sourcePoint" />
            <mxPoint x="490" y="600" as="targetPoint" />
          </mxGeometry>
        </mxCell>
        <mxCell id="_nX4mWLyU_Ge7oBZuAVl-4" value="" style="endArrow=none;html=1;rounded=0;entryX=0;entryY=0.617;entryDx=0;entryDy=0;entryPerimeter=0;exitX=1;exitY=0.5;exitDx=0;exitDy=0;" edge="1" parent="1" source="-SHVfvobNdwr3lZzmmMt-43" target="-SHVfvobNdwr3lZzmmMt-41">
          <mxGeometry width="50" height="50" relative="1" as="geometry">
            <mxPoint x="440" y="650" as="sourcePoint" />
            <mxPoint x="490" y="600" as="targetPoint" />
          </mxGeometry>
        </mxCell>
        <mxCell id="_nX4mWLyU_Ge7oBZuAVl-5" value="" style="endArrow=none;html=1;rounded=0;entryX=1;entryY=0.5;entryDx=0;entryDy=0;" edge="1" parent="1" source="-SHVfvobNdwr3lZzmmMt-47" target="-SHVfvobNdwr3lZzmmMt-41">
          <mxGeometry width="50" height="50" relative="1" as="geometry">
            <mxPoint x="240" y="490" as="sourcePoint" />
            <mxPoint x="290" y="440" as="targetPoint" />
          </mxGeometry>
        </mxCell>
        <mxCell id="_nX4mWLyU_Ge7oBZuAVl-6" value="" style="endArrow=none;html=1;rounded=0;exitX=1;exitY=0.5;exitDx=0;exitDy=0;" edge="1" parent="1" source="-SHVfvobNdwr3lZzmmMt-15">
          <mxGeometry width="50" height="50" relative="1" as="geometry">
            <mxPoint x="240" y="295" as="sourcePoint" />
            <mxPoint x="-70" y="255" as="targetPoint" />
          </mxGeometry>
        </mxCell>
      </root>
    </mxGraphModel>
  </diagram>
</mxfile>
